<?xml version="1.0" encoding="UTF-8" standalone="no"?>
<!-- Created with Inkscape (http://www.inkscape.org/) -->

<svg
   xmlns:dc="http://purl.org/dc/elements/1.1/"
   xmlns:cc="http://creativecommons.org/ns#"
   xmlns:rdf="http://www.w3.org/1999/02/22-rdf-syntax-ns#"
   xmlns:svg="http://www.w3.org/2000/svg"
   xmlns="http://www.w3.org/2000/svg"
   xmlns:sodipodi="http://sodipodi.sourceforge.net/DTD/sodipodi-0.dtd"
   xmlns:inkscape="http://www.inkscape.org/namespaces/inkscape"
   version="1.1"
   id="svg2"
   xml:space="preserve"
   width="91.026665"
   height="93.306664"
   viewBox="0 0 91.026665 93.306664"
   sodipodi:docname="Klex.svg"
   inkscape:version="0.92.3 (2405546, 2018-03-11)"><metadata
     id="metadata8"><rdf:RDF><cc:Work
         rdf:about=""><dc:format>image/svg+xml</dc:format><dc:type
           rdf:resource="http://purl.org/dc/dcmitype/StillImage" /><dc:title></dc:title></cc:Work></rdf:RDF></metadata><defs
     id="defs6"><clipPath
       clipPathUnits="userSpaceOnUse"
       id="clipPath20"><path
         d="m 16.6094,469.918 c 6.9336,51.156 40.5351,88.109 92.3516,93.797 118.031,13.047 236.781,16.074 355.215,9.144 36.074,-2.121 72.187,-5.187 108.164,-9.144 51.758,-5.688 86.797,-42.641 93.808,-93.797 6.434,-49.68 10.157,-99.375 11.258,-149.07 1.477,-69.657 -2.246,-139.325 -11.258,-208.953 -7.011,-52.6098 -42.05,-89.5434 -93.808,-95.1841 -18.516,-1.9453 -37.043,-3.5664 -55.606,-5 C 381.012,1.25 244.418,2.91016 108.961,16.7109 57.1445,22.3516 23.543,59.2852 16.6094,111.895 10.3594,159.969 6.68359,208.074 5.42969,256.191 3.69141,327.43 7.34375,398.676 16.6094,469.918"
         id="path18"
         inkscape:connector-curvature="0" /></clipPath><clipPath
       clipPathUnits="userSpaceOnUse"
       id="clipPath26"><path
         d="m 16.6094,469.918 c 6.9336,51.156 40.5351,88.109 92.3516,93.797 118.031,13.047 236.781,16.074 355.215,9.144 36.074,-2.121 72.187,-5.187 108.164,-9.144 51.758,-5.688 86.797,-42.641 93.808,-93.797 6.434,-49.68 10.157,-99.375 11.258,-149.07 1.477,-69.657 -2.246,-139.325 -11.258,-208.953 -7.011,-52.6098 -42.05,-89.5434 -93.808,-95.1841 -18.516,-1.9453 -37.043,-3.5664 -55.606,-5 C 381.012,1.25 244.418,2.91016 108.961,16.7109 57.1445,22.3516 23.543,59.2852 16.6094,111.895 10.3594,159.969 6.68359,208.074 5.42969,256.191 3.69141,327.43 7.34375,398.676 16.6094,469.918"
         id="path24"
         inkscape:connector-curvature="0" /></clipPath></defs><sodipodi:namedview
     pagecolor="#ffffff"
     bordercolor="#666666"
     borderopacity="1"
     objecttolerance="10"
     gridtolerance="10"
     guidetolerance="10"
     inkscape:pageopacity="0"
     inkscape:pageshadow="2"
     inkscape:window-width="728"
     inkscape:window-height="480"
     id="namedview4"
     showgrid="false"
     inkscape:zoom="2.5292942"
     inkscape:cx="45.513332"
     inkscape:cy="46.653332"
     inkscape:window-x="0"
     inkscape:window-y="28"
     inkscape:window-maximized="0"
     inkscape:current-layer="g10" /><g
     id="g10"
     inkscape:groupmode="layer"
     inkscape:label="ink_ext_XXXXXX"
     transform="matrix(1.3333333,0,0,-1.3333333,0,93.306667)"><g
       id="g12"
       transform="scale(0.1)"><g
         id="g14"><g
           id="g16"
           clip-path="url(#clipPath20)"><g
             id="g22"
             clip-path="url(#clipPath26)"><g
               id="g28"
               transform="matrix(10,0,0,-10,-81572.1,82263.7)"><path
                 d="m 8158.8707,8179.3802 c 0.6931,-5.1149 4.0534,-8.8103 9.2349,-9.3795 0.084,4.0201 0.2695,8.063 0.5505,12.1154 -5.0389,0.8794 -8.9726,3.7485 -10.7573,7.9496 0.1852,-3.5622 0.5089,-7.1233 0.9719,-10.6855 z"
                 style="fill:#d4d3d3;fill-opacity:1;fill-rule:nonzero;stroke:none"
                 id="path30"
                 inkscape:connector-curvature="0" /><path
                 d="m 8157.8988,8190.0657 c 1.7847,-4.2011 5.7184,-7.0702 10.7573,-7.9496 0.1405,2.0262 0.3049,4.0544 0.4933,6.0848 -4.9411,1.0916 -8.8904,3.636 -11.4255,7.2086 0.024,-1.7816 0.082,-3.5621 0.1749,-5.3438 z"
                 style="fill:#d4d3d3;fill-opacity:1;fill-rule:nonzero;stroke:none"
                 id="path32"
                 inkscape:connector-curvature="0" /><path
                 d="m 8157.7239,8195.4095 c 2.5351,-3.5726 6.4844,-6.117 11.4255,-7.2086 0.1873,2.0293 0.3986,4.0596 0.6317,6.0879 -4.8963,1.1884 -9.1516,3.1761 -12.028,6.4625 -0.044,-1.7796 -0.053,-3.5612 -0.029,-5.3418 z"
                 style="fill:#d4d3d3;fill-opacity:1;fill-rule:nonzero;stroke:none"
                 id="path34"
                 inkscape:connector-curvature="0" /><path
                 d="m 8168.1056,8170.0007 c 5.9006,-0.6515 11.8199,-1.0542 17.7444,-1.2062 0.1478,3.9275 0.5734,7.8727 1.0459,11.8386 -6.1556,0.099 -12.4537,0.4694 -18.2398,1.483 -0.281,-4.0524 -0.4662,-8.0953 -0.5505,-12.1154 z"
                 style="fill:#d4d3d3;fill-opacity:1;fill-rule:nonzero;stroke:none"
                 id="path36"
                 inkscape:connector-curvature="0" /><path
                 d="m 8168.6561,8182.1161 c 5.7861,-1.0136 12.0842,-1.3841 18.2398,-1.483 0.2352,1.9825 0.4839,3.9712 0.7149,5.9651 -6.2554,0.026 -12.7544,0.3393 -18.4614,1.6027 -0.1884,-2.0304 -0.3528,-4.0586 -0.4933,-6.0848 z"
                 style="fill:#e1e0e0;fill-opacity:1;fill-rule:nonzero;stroke:none"
                 id="path38"
                 inkscape:connector-curvature="0" /><path
                 d="m 8169.1494,8188.2009 c 5.707,-1.2634 12.206,-1.5766 18.4614,-1.6027 0.231,1.9929 0.4454,3.992 0.614,5.9963 -6.2409,0.014 -12.7711,0.3175 -18.4437,1.6943 -0.2331,-2.0283 -0.4444,-4.0586 -0.6317,-6.0879 z"
                 style="fill:#e8e7e7;fill-opacity:1;fill-rule:nonzero;stroke:none"
                 id="path40"
                 inkscape:connector-curvature="0" /><path
                 d="m 8185.85,8168.7945 c 5.9235,-0.1519 11.8532,-0.054 17.7746,0.2925 0.1061,1.9179 0.2133,3.8535 0.3236,5.8037 -5.7008,-0.2591 -11.6773,-0.3538 -17.6965,-0.1914 -0.1842,-1.9731 -0.3278,-3.941 -0.4017,-5.9048 z"
                 style="fill:#d4d3d3;fill-opacity:1;fill-rule:nonzero;stroke:none"
                 id="path42"
                 inkscape:connector-curvature="0" /><path
                 d="m 8186.2517,8174.6993 c 6.0192,-0.1624 11.9957,-0.068 17.6965,0.1914 0.1093,1.9503 0.2196,3.914 0.3299,5.8861 -5.2158,-0.07 -11.2267,-0.2425 -17.3822,-0.1437 -0.2363,-1.9835 -0.461,-3.9607 -0.6442,-5.9338 z"
                 style="fill:#e3e2e2;fill-opacity:1;fill-rule:nonzero;stroke:none"
                 id="path44"
                 inkscape:connector-curvature="0" /><path
                 d="m 8186.8959,8180.6331 c 6.1555,-0.099 12.1664,0.074 17.3822,0.1437 0.1093,1.971 0.2185,3.9514 0.3268,5.9328 -4.7288,0.1207 -10.7387,-0.1384 -16.9941,-0.1114 -0.231,-1.9939 -0.4797,-3.9826 -0.7149,-5.9651 z"
                 style="fill:#efeeee;fill-opacity:1;fill-rule:nonzero;stroke:none"
                 id="path46"
                 inkscape:connector-curvature="0" /><path
                 d="m 8187.6108,8186.5982 c 6.2554,-0.027 12.2653,0.2321 16.9941,0.1114 0.1082,1.9825 0.2154,3.967 0.3184,5.9474 -4.5082,0.2071 -10.4587,-0.074 -16.6985,-0.062 -0.1686,-2.0043 -0.383,-4.0034 -0.614,-5.9963 z"
                 style="fill:#f7f7f7;fill-opacity:1;fill-rule:nonzero;stroke:none"
                 id="path48"
                 inkscape:connector-curvature="0" /><path
                 d="m 8203.6246,8169.087 c 1.8034,0.1061 3.6079,0.2362 5.4114,0.3881 0.013,1.8701 -0.01,3.762 -0.051,5.6685 -1.6994,-0.091 -3.3717,-0.1623 -5.0368,-0.2529 -0.1103,-1.9502 -0.2175,-3.8858 -0.3236,-5.8037 z"
                 style="fill:#d4d3d3;fill-opacity:1;fill-rule:nonzero;stroke:none"
                 id="path50"
                 inkscape:connector-curvature="0" /><path
                 d="m 8203.9482,8174.8907 c 1.6651,0.091 3.3374,0.1624 5.0368,0.2529 -0.043,1.9065 -0.104,3.8276 -0.1686,5.7549 -1.6328,-0.036 -3.175,-0.07 -4.5383,-0.1217 -0.1103,-1.9721 -0.2206,-3.9358 -0.3299,-5.8861 z"
                 style="fill:#e7e6e7;fill-opacity:1;fill-rule:nonzero;stroke:none"
                 id="path52"
                 inkscape:connector-curvature="0" /><path
                 d="m 8204.2781,8180.7768 c 1.3633,0.052 2.9055,0.085 4.5383,0.1217 -0.066,1.9273 -0.1342,3.8609 -0.1914,5.7934 -1.5558,0.022 -2.9587,0.033 -4.0201,0.018 -0.1083,-1.9814 -0.2175,-3.9618 -0.3268,-5.9328 z"
                 style="fill:#f5f4f5;fill-opacity:1;fill-rule:nonzero;stroke:none"
                 id="path54"
                 inkscape:connector-curvature="0" /><path
                 d="m 8204.6049,8186.7096 c 1.0614,0.016 2.4643,0 4.0201,-0.018 -0.056,1.9315 -0.101,3.8619 -0.1166,5.7819 -1.4215,0.1 -2.662,0.1832 -3.5851,0.1832 -0.103,-1.9804 -0.2102,-3.9649 -0.3184,-5.9474 z"
                 style="fill:#fcfcfc;fill-opacity:1;fill-rule:nonzero;stroke:none"
                 id="path56"
                 inkscape:connector-curvature="0" /><path
                 d="m 8209.036,8169.4751 c 1.8035,0.152 3.6059,0.3278 5.4042,0.5256 -0.08,1.8222 -0.1644,3.6548 -0.2571,5.4957 -1.7732,-0.1561 -3.4997,-0.2633 -5.1981,-0.3528 0.042,-1.9065 0.064,-3.7984 0.051,-5.6685 z"
                 style="fill:#d4d3d3;fill-opacity:1;fill-rule:nonzero;stroke:none"
                 id="path58"
                 inkscape:connector-curvature="0" /><path
                 d="m 8208.985,8175.1436 c 1.6984,0.09 3.4249,0.1967 5.1981,0.3528 -0.092,1.841 -0.1894,3.6892 -0.2945,5.5426 -1.7191,-0.064 -3.4414,-0.1041 -5.0722,-0.1405 0.065,-1.9273 0.126,-3.8484 0.1686,-5.7549 z"
                 style="fill:#e5e5e5;fill-opacity:1;fill-rule:nonzero;stroke:none"
                 id="path60"
                 inkscape:connector-curvature="0" /><path
                 d="m 8208.8164,8180.8985 c 1.6308,0.036 3.3531,0.076 5.0722,0.1405 -0.104,1.8534 -0.2164,3.711 -0.3361,5.5707 -1.6661,0.027 -3.3728,0.06 -4.9275,0.082 0.057,-1.9325 0.1259,-3.8661 0.1914,-5.7934 z"
                 style="fill:#f2f2f2;fill-opacity:1;fill-rule:nonzero;stroke:none"
                 id="path62"
                 inkscape:connector-curvature="0" /><path
                 d="m 8208.625,8186.6919 c 1.5547,-0.022 3.2614,-0.055 4.9275,-0.082 -0.1197,1.8586 -0.2477,3.7193 -0.384,5.579 -1.6401,0.069 -3.2406,0.1852 -4.6601,0.2851 0.016,-1.92 0.06,-3.8504 0.1166,-5.7819 z"
                 style="fill:#fbfbfb;fill-opacity:1;fill-rule:nonzero;stroke:none"
                 id="path64"
                 inkscape:connector-curvature="0" /><path
                 d="m 8214.4402,8170.0007 c 2.5881,0.2851 4.7579,1.3507 6.3678,2.9846 0.081,3.0637 -0.061,6.3616 -0.2518,9.6688 -1.8826,-0.9751 -4.2053,-1.5225 -6.6676,-1.6151 0.2103,-3.7068 0.3913,-7.395 0.5516,-11.0383 z"
                 style="fill:#d4d3d3;fill-opacity:1;fill-rule:nonzero;stroke:none"
                 id="path66"
                 inkscape:connector-curvature="0" /><path
                 d="m 8213.8886,8181.039 c 2.4623,0.093 4.785,0.64 6.6676,1.6151 -0.095,1.6536 -0.2009,3.3093 -0.2976,4.939 -1.9867,-0.6764 -4.3303,-1.0219 -6.7061,-0.9834 0.1197,-1.8597 0.2321,-3.7173 0.3361,-5.5707 z"
                 style="fill:#ededed;fill-opacity:1;fill-rule:nonzero;stroke:none"
                 id="path68"
                 inkscape:connector-curvature="0" /><path
                 d="m 8213.5525,8186.6097 c 2.3758,-0.038 4.7194,0.307 6.7061,0.9834 -0.097,1.6297 -0.1832,3.2344 -0.2373,4.785 -2.098,-0.2872 -4.5155,-0.2872 -6.8528,-0.1894 0.1363,-1.8597 0.2643,-3.7204 0.384,-5.579 z"
                 style="fill:#f5f4f5;fill-opacity:1;fill-rule:nonzero;stroke:none"
                 id="path70"
                 inkscape:connector-curvature="0" /><path
                 d="m 8220.808,8172.9853 c 1.611,1.6349 2.662,3.8369 3.0128,6.3949 0.3215,2.484 0.5754,4.9681 0.7628,7.4522 -0.7015,-1.8024 -2.1449,-3.2042 -4.0274,-4.1783 0.1904,-3.3072 0.333,-6.6051 0.2518,-9.6688 z"
                 style="fill:#d4d3d3;fill-opacity:1;fill-rule:nonzero;stroke:none"
                 id="path72"
                 inkscape:connector-curvature="0" /><path
                 d="m 8220.5562,8182.6541 c 1.8825,0.9741 3.3259,2.3759 4.0274,4.1783 0.094,1.2425 0.1706,2.4851 0.231,3.7276 -0.9429,-1.2841 -2.5715,-2.2905 -4.556,-2.9669 0.097,-1.6297 0.2029,-3.2854 0.2976,-4.939 z"
                 style="fill:#e1e0e0;fill-opacity:1;fill-rule:nonzero;stroke:none"
                 id="path74"
                 inkscape:connector-curvature="0" /><path
                 d="m 8220.2586,8187.5931 c 1.9845,0.6764 3.6131,1.6828 4.556,2.9669 0.06,1.2416 0.1051,2.4841 0.1322,3.7267 -1.0532,-1.048 -2.8296,-1.6214 -4.9255,-1.9086 0.054,-1.5506 0.1405,-3.1553 0.2373,-4.785 z"
                 style="fill:#e7e6e7;fill-opacity:1;fill-rule:nonzero;stroke:none"
                 id="path76"
                 inkscape:connector-curvature="0" /><path
                 d="m 8157.7531,8200.7513 c 0.062,2.406 0.1863,4.812 0.3715,7.217 2.7473,-2.099 6.2242,-3.5331 10.1038,-4.5238 -0.4381,-3.0117 -0.819,-6.0265 -0.8939,-8.4752 -3.8609,1.2239 -7.1952,3.0565 -9.5814,5.782 z"
                 style="fill:#d4d3d3;fill-opacity:1;fill-rule:nonzero;stroke:none"
                 id="path78"
                 inkscape:connector-curvature="0" /><path
                 d="m 8167.3345,8194.9693 c 0.075,2.4487 0.4558,5.4635 0.8939,8.4752 3.8807,-0.9896 8.164,-1.536 12.5286,-1.8555 -0.3112,-3.1001 -0.5797,-6.2086 -0.6806,-8.752 -4.4936,0.2935 -8.8811,0.9085 -12.7419,2.1323 z"
                 style="fill:#e7e6e7;fill-opacity:1;fill-rule:nonzero;stroke:none"
                 id="path80"
                 inkscape:connector-curvature="0" /><path
                 d="m 8158.1246,8207.9683 c 0.1863,2.405 0.4339,4.8089 0.7461,7.2118 3.1096,-1.4694 6.7134,-2.5122 10.5909,-3.2781 -0.3008,-2.4362 -0.7951,-5.4447 -1.2332,-8.4575 -3.8796,0.9907 -7.3565,2.4248 -10.1038,4.5238 z"
                 style="fill:#d4d3d3;fill-opacity:1;fill-rule:nonzero;stroke:none"
                 id="path82"
                 inkscape:connector-curvature="0" /><path
                 d="m 8168.2284,8203.4445 c 0.4381,3.0128 0.9324,6.0213 1.2332,8.4575 3.8765,-0.7649 8.0287,-1.2529 12.2351,-1.612 -0.2737,-2.508 -0.6286,-5.5998 -0.9397,-8.701 -4.3646,0.3195 -8.6479,0.8659 -12.5286,1.8555 z"
                 style="fill:#e4e4e4;fill-opacity:1;fill-rule:nonzero;stroke:none"
                 id="path84"
                 inkscape:connector-curvature="0" /><path
                 d="m 8180.0764,8192.837 c 0.1009,2.5434 0.3694,5.6519 0.6806,8.752 4.3645,-0.3184 8.8092,-0.4121 13.0083,-0.4985 -0.1093,-2.9003 -0.1894,-5.8152 -0.3174,-8.4512 -4.2803,-0.066 -8.879,-0.095 -13.3715,0.1977 z"
                 style="fill:#f5f4f5;fill-opacity:1;fill-rule:nonzero;stroke:none"
                 id="path86"
                 inkscape:connector-curvature="0" /><path
                 d="m 8193.4479,8192.6393 c 0.128,2.636 0.2081,5.5509 0.3174,8.4512 4.2001,-0.086 8.1567,-0.1633 11.5441,-0.4516 -0.1353,-2.6423 -0.2466,-5.3012 -0.3861,-7.9819 -3.2271,0.1488 -7.1931,0.047 -11.4754,-0.018 z"
                 style="fill:#fcfcfc;fill-opacity:1;fill-rule:nonzero;stroke:none"
                 id="path88"
                 inkscape:connector-curvature="0" /><path
                 d="m 8180.757,8201.589 c 0.3111,3.1012 0.666,6.193 0.9397,8.701 4.2053,-0.358 8.4669,-0.5859 12.5629,-0.8304 -0.2456,-2.5819 -0.385,-5.4687 -0.4943,-8.3691 -4.1991,0.086 -8.6438,0.1801 -13.0083,0.4985 z"
                 style="fill:#f1f1f1;fill-opacity:1;fill-rule:nonzero;stroke:none"
                 id="path90"
                 inkscape:connector-curvature="0" /><path
                 d="m 8193.7653,8201.0905 c 0.1093,2.9004 0.2487,5.7872 0.4943,8.3691 4.0971,-0.2467 8.0287,-0.51 11.5764,-0.9387 -0.2342,-2.6142 -0.3924,-5.2387 -0.5266,-7.882 -3.3874,0.2883 -7.344,0.3653 -11.5441,0.4516 z"
                 style="fill:#fafafa;fill-opacity:1;fill-rule:nonzero;stroke:none"
                 id="path92"
                 inkscape:connector-curvature="0" /><path
                 d="m 8158.8707,8215.1801 c 0.6931,5.2606 4.0534,8.9539 9.2349,9.5179 6.7727,0.69 13.5734,1.0761 20.3773,1.1604 -3.4394,-3.0502 -6.1899,-10.1392 -6.7862,-15.5684 -8.4127,0.716 -16.6069,1.9523 -22.826,4.8901 z"
                 style="fill:#d4d3d3;fill-opacity:1;fill-rule:nonzero;stroke:none"
                 id="path94"
                 inkscape:connector-curvature="0" /><path
                 d="m 8181.6967,8210.29 c 0.2976,2.7151 1.1343,5.8444 2.3269,8.676 3.9587,-0.3746 7.9445,-0.7232 11.8085,-1.0635 -0.7608,-2.7869 -1.3071,-5.6716 -1.5725,-8.4429 -4.096,0.2445 -8.3576,0.4724 -12.5629,0.8304 z"
                 style="fill:#eaeaea;fill-opacity:1;fill-rule:nonzero;stroke:none"
                 id="path96"
                 inkscape:connector-curvature="0" /><path
                 d="m 8194.2596,8209.4596 c 0.2654,2.7713 0.8117,5.656 1.5725,8.4429 3.8639,-0.3414 7.6062,-0.6744 11.0768,-1.0199 -0.487,-2.7785 -0.8221,-5.5634 -1.0729,-8.3617 -3.5477,0.4287 -7.4793,0.692 -11.5764,0.9387 z"
                 style="fill:#f2f2f2;fill-opacity:1;fill-rule:nonzero;stroke:none"
                 id="path98"
                 inkscape:connector-curvature="0" /><path
                 d="m 8184.0236,8218.966 c 1.1916,2.8327 2.7401,5.3668 4.4593,6.8924 3.4019,0.042 6.8049,0.01 10.2058,-0.1031 -1.1219,-2.3789 -2.0959,-5.067 -2.8566,-7.8528 -3.864,0.3403 -7.8498,0.6889 -11.8085,1.0635 z"
                 style="fill:#dfdfdf;fill-opacity:1;fill-rule:nonzero;stroke:none"
                 id="path100"
                 inkscape:connector-curvature="0" /><path
                 d="m 8195.8321,8217.9025 c 0.7607,2.7858 1.7347,5.4739 2.8566,7.8528 3.3998,-0.1092 6.7976,-0.2955 10.1912,-0.5567 -0.8481,-2.7682 -1.485,-5.5384 -1.971,-8.316 -3.4706,0.3455 -7.2129,0.6785 -11.0768,1.0199 z"
                 style="fill:#e5e5e5;fill-opacity:1;fill-rule:nonzero;stroke:none"
                 id="path102"
                 inkscape:connector-curvature="0" /><path
                 d="m 8204.9233,8192.657 c 1.1791,0 2.8774,-0.1363 4.8068,-0.2695 0.2893,2.74 0.5495,5.4624 0.8211,8.1723 -1.9158,0.1415 -3.9431,0.3372 -5.2262,0.3601 -0.1415,-2.7359 -0.256,-5.4875 -0.4017,-8.2629 z"
                 style="fill:#ffffff;fill-opacity:1;fill-rule:nonzero;stroke:none"
                 id="path104"
                 inkscape:connector-curvature="0" /><path
                 d="m 8205.325,8200.9199 c 1.2831,-0.023 3.3104,-0.2186 5.2262,-0.3601 0.2716,2.7089 0.5547,5.4042 0.8908,8.0922 -1.8888,0.1624 -4.0377,0.3518 -5.555,0.4236 -0.2529,-2.7037 -0.4215,-5.4209 -0.562,-8.1557 z"
                 style="fill:#fcfcfc;fill-opacity:1;fill-rule:nonzero;stroke:none"
                 id="path106"
                 inkscape:connector-curvature="0" /><path
                 d="m 8205.887,8209.0756 c 1.5173,-0.072 3.6662,-0.2612 5.555,-0.4236 0.3372,2.687 0.7275,5.3657 1.2124,8.0392 -1.8628,0.1831 -3.9472,0.3455 -5.6955,0.4662 -0.4798,-2.686 -0.818,-5.3782 -1.0719,-8.0818 z"
                 style="fill:#f5f4f5;fill-opacity:1;fill-rule:nonzero;stroke:none"
                 id="path108"
                 inkscape:connector-curvature="0" /><path
                 d="m 8206.9589,8217.1574 c 1.7483,-0.1207 3.8327,-0.2831 5.6955,-0.4662 0.485,2.6724 1.0667,5.3406 1.7858,8.0068 -1.8513,0.1946 -3.7037,0.357 -5.5603,0.5006 -0.8211,-2.6776 -1.4423,-5.3563 -1.921,-8.0412 z"
                 style="fill:#e7e6e7;fill-opacity:1;fill-rule:nonzero;stroke:none"
                 id="path110"
                 inkscape:connector-curvature="0" /><path
                 d="m 8209.7301,8192.3875 c 2.6943,-0.1853 5.8392,-0.3674 8.6386,-0.1749 0.1644,2.2395 0.3372,4.6518 0.5193,7.1473 -2.6402,0.3871 -5.6571,0.998 -8.3368,1.1999 -0.2716,-2.7099 -0.5318,-5.4323 -0.8211,-8.1723 z"
                 style="fill:#fcfcfc;fill-opacity:1;fill-rule:nonzero;stroke:none"
                 id="path112"
                 inkscape:connector-curvature="0" /><path
                 d="m 8210.5512,8200.5598 c 2.6797,-0.2019 5.6966,-0.8128 8.3368,-1.1999 0.1821,2.4966 0.3746,5.0764 0.5765,7.651 -2.4643,0.7565 -5.3802,1.407 -8.0225,1.6411 -0.3361,-2.688 -0.6192,-5.3833 -0.8908,-8.0922 z"
                 style="fill:#fafafa;fill-opacity:1;fill-rule:nonzero;stroke:none"
                 id="path114"
                 inkscape:connector-curvature="0" /><path
                 d="m 8211.442,8208.652 c 2.6423,-0.2341 5.5582,-0.8846 8.0225,-1.6411 0.2019,2.5756 0.4142,5.145 0.638,7.6239 -2.1594,1.1135 -4.8443,1.7889 -7.4481,2.0564 -0.4849,-2.6735 -0.8752,-5.3522 -1.2124,-8.0392 z"
                 style="fill:#f1f1f1;fill-opacity:1;fill-rule:nonzero;stroke:none"
                 id="path116"
                 inkscape:connector-curvature="0" /><path
                 d="m 8212.6544,8216.6912 c 2.6038,-0.2675 5.2887,-0.9429 7.4481,-2.0564 0.2237,2.4768 0.4589,4.862 0.7055,7.0661 -1.6099,1.6505 -3.7797,2.7151 -6.3678,2.9971 -0.7191,-2.6662 -1.3008,-5.3344 -1.7858,-8.0068 z"
                 style="fill:#e4e4e4;fill-opacity:1;fill-rule:nonzero;stroke:none"
                 id="path118"
                 inkscape:connector-curvature="0" /><path
                 d="m 8218.3687,8192.2126 c 2.8004,0.1925 5.2574,0.7608 6.5781,2.0741 0.036,1.741 0.041,3.482 0.012,5.2241 -1.1686,-0.6972 -3.43,-0.5359 -6.0712,-0.1509 -0.1821,-2.4955 -0.3549,-4.9078 -0.5193,-7.1473 z"
                 style="fill:#eeedee;fill-opacity:1;fill-rule:nonzero;stroke:none"
                 id="path120"
                 inkscape:connector-curvature="0" /><path
                 d="m 8218.888,8199.3599 c 2.6412,-0.385 4.9026,-0.5463 6.0712,0.1509 -0.028,1.741 -0.088,3.4821 -0.1821,5.2241 -0.8356,0.6577 -2.8493,1.5194 -5.3126,2.276 -0.2019,-2.5746 -0.3944,-5.1544 -0.5765,-7.651 z"
                 style="fill:#ebebeb;fill-opacity:1;fill-rule:nonzero;stroke:none"
                 id="path122"
                 inkscape:connector-curvature="0" /><path
                 d="m 8219.4645,8207.0109 c 2.4633,-0.7566 4.477,-1.6183 5.3126,-2.276 -0.1883,3.4821 -0.5068,6.9642 -0.9563,10.4452 -0.3508,2.6298 -1.4018,4.8682 -3.0128,6.5208 -0.4943,-4.4082 -0.9397,-9.5398 -1.3435,-14.69 z"
                 style="fill:#e4e4e4;fill-opacity:1;fill-rule:nonzero;stroke:none"
                 id="path124"
                 inkscape:connector-curvature="0" /></g></g></g></g><path
         d="m 108.941,563.75 c 153.957,17.027 309.395,17.027 463.418,0 51.778,-5.699 86.778,-42.637 93.797,-93.793 15.371,-119.367 15.371,-238.707 0,-358.062 C 659.137,59.3555 624.137,22.3828 572.359,16.7109 418.336,1.09375 262.898,1.09375 108.941,16.7109 57.1641,22.3828 23.5391,59.3555 16.5313,111.895 c -15.37505,119.355 -15.37505,238.695 0,358.062 7.0078,51.156 40.6328,88.094 92.4097,93.793 z"
         style="fill:none;stroke:#918f90;stroke-width:10.0010004;stroke-linecap:butt;stroke-linejoin:miter;stroke-miterlimit:4;stroke-dasharray:none;stroke-opacity:1"
         id="path126"
         inkscape:connector-curvature="0" /><path
         d="m 308.734,67.1563 -6.019,-1.961 h -10.414 l -4.242,1.961 -2.082,2.1484 -2.204,4.3281 -4.199,8.5938 -2.086,8.4257 -2.121,4.3086 -1.969,4.2852 -4.25,4.3089 -4.238,1.933 -6.281,2.207 -8.34,2.11 h -4.238 -4.242 l -4.246,-2.11 -1.965,-2.207 -3.868,-4.082 -4.285,-6.4451 -4.203,-6.4453 -2.121,-2.1484 -2.117,-2.0234 -8.301,-2.1172 h -4.258 -6.347 l -6.172,2.1172 -6.344,4.1718 -2.121,2.1367 -2.121,4.3086 -2.125,6.4451 2.125,4.082 2.121,10.75 6.324,18.879 v 4.305 4.289 l -2.101,2.117 -2.102,2.012 -10.605,2.16 -10.395,2.156 h -10.309 l -8.312,-4.316 -8.469,-4.129 -8.258,-4.289 -16.816,-10.703 -16.7617,-10.614 -6.0625,-3.976 -6.3516,-2.195 h -6.3203 l -6.25,2.195 -6.2891,3.976 -4.2578,4.286 -2.1055,4.277 -4.1132,8.449 v 4.305 4.289 l 1.9765,6.289 4.2422,4.324 4.2578,6.426 8.2617,4.094 16.9493,8.64 16.4762,8.606 8.317,4.121 4.242,4.277 4.199,2.157 6.406,8.566 2.106,4.168 1.949,4.316 2.117,8.567 v 12.429 4.278 4.316 l -4.066,8.399 -2.106,6.445 -6.406,4.316 -4.199,4.278 -6.211,2.011 -12.707,4.278 -12.2032,2.187 -10.5859,4.278 -4.2774,2.14 -1.9726,4.297 -2.0469,4.141 v 6.425 8.633 4.16 l 2.0469,4.258 4.1054,4.278 h 4.2657 l 6.3672,2.156 h 12.1953 l 14.8125,2.121 6.211,2.168 6.344,1.98 6.367,4.329 6.152,3.964 6.367,8.621 4.239,10.563 2.125,6.437 v 4.305 4.121 l -6.364,15.059 -2.109,8.281 v 8.555 l 2.109,4.172 v 4.265 l 4.239,4.336 2.125,6.406 8.273,6.309 2.121,2.129 3.965,2.16 6.344,2.176 h 6.152 8.504 6.344 l 8.297,4.258 8.48,6.164 6.215,4.148 2.086,6.426 2.117,6.426 v 4.297 l -2.117,6.289 -4.207,4.258 -8.352,10.617 -6.347,10.754 -4.2,4.296 -1.972,6.258 v 4.297 l 1.972,6.438 4.2,6.289 6.347,6.441 6.344,2.172 6.215,2.125 h 6.324 l 4.242,-2.125 6.028,-2.172 4.125,-4.262 10.566,-8.468 12.539,-8.578 6.32,-4.282 6.219,-2.008 h 6.321 l 6.371,2.008 8.293,4.282 8.488,6.441 3.894,2.137 2.125,4.324 4.278,8.406 v 6.481 l 1.937,6.246 v 14.754 l -1.937,14.843 -2.114,14.895 -4.289,12.875 -3.894,8.433 -4.242,10.731 -4.246,10.625 -2.122,8.57 -1.929,8.426 -2.125,8.273 v 8.426 l 2.125,6.481 1.929,4.281 2.122,6.457 2.16,4.125 2.086,4.309 4.242,4.296 6.019,4.282 6.215,2.117 8.446,2.047 H 334 l 6.02,-2.047 6.367,-2.117 6.332,-4.282 6.25,-4.296 4.16,-6.442 2.168,-4.152 2.09,-8.578 2.129,-6.481 v -10.558 l -2.129,-8.282 -2.09,-10.586 -4.238,-10.722 -4.207,-10.606 -6.211,-10.547 -2.121,-6.46 -2.133,-10.762 -2.117,-10.543 -2.082,-14.871 v -25.344 -19.164 -6.441 l 2.082,-4.282 4.25,-6.304 4.199,-6.426 4.133,-4.317 6.277,-2.136 6.387,-1.985 12.238,-4.304 h 14.648 6.328 l 8.477,2.156 h 2.137 l 4.074,2.148 2.129,1.985 4.238,2.136 2.117,6.446 2.082,4.297 v 6.304 l 4.09,19.149 8.457,19.168 6.407,12.59 3.886,6.46 6.172,4.153 4.289,4.281 4.219,4.301 8.309,2.121 h 6.339 4.2 l 4.246,-2.121 4.093,-2.188 2.118,-4.273 2.109,-6.274 2.09,-10.757 -2.09,-10.266 -2.109,-4.273 -2.118,-6.481 -6.183,-14.867 -12.695,-12.731 -14.688,-15.039 -4.062,-4.121 -2.118,-6.445 -3.925,-10.742 -2.082,-10.586 v -8.555 l 3.886,-6.328 4.239,-3.984 4.062,-2.129 2.16,-4.305 8.457,-4.289 6.172,-2.137 6.367,-2.004 6.317,2.004 4.093,2.137 6.317,6.465 6.379,8.242 6.172,4.297 4.238,4.18 6.055,4.277 4.238,2.129 8.308,2.168 h 4.2 l 4.25,-2.168 h 2.117 l 2.109,-2.129 4.25,-4.277 1.934,-6.297 4.277,-4.328 v -6.094 -4.336 -4.266 l -2.121,-4.172 -4.09,-6.406 -6.359,-6.484 -10.567,-8.406 -8.308,-6.438 -8.176,-6.309 -6.355,-6.289 -1.926,-4.277 -2.129,-4.297 v -17.031 l -2.117,-23.148 2.117,-25.45 2.129,-23.496 4.094,-23.488 2.07,-8.602 4.246,-8.398 3.926,-6.438 4.219,-2.168 6.21,-4.128 6.368,-3.977 4.199,-4.316 2.109,-6.407 2.129,-4.316 v -6.289 l -2.129,-6.445 -2.109,-6.434 -6.367,-6.328 -2.11,-2.11 h -4.062 l -4.238,-2.16 -6.336,2.16 h -6.055 -6.164 l -6.367,-4.289 -6.348,-6.433 -2.109,-4.172 -2.118,-4.285 2.118,-8.594 4.199,-8.398 6.379,-8.606 4.246,-8.445 4.094,-6.446 v -8.3 l -2.168,-2.11 -1.926,-4.14 -6.367,-4.3089 -4.258,-2.168 -4.199,-2.1172 -6.211,2.1172 -4.246,2.168 -4.2,4.3089 -8.332,10.574 -10.535,10.422 -4.289,4.168 -6.172,4.277 -3.886,2.121 h -6.407 -6.375 l -8.254,-2.121 -4.238,-2.156 -4.246,-2.121 -4.074,-6.328 -4.246,-6.153 -2.129,-8.543 -4.239,-6.289 -4.152,-4.3279 -4.101,-2.1172 -4.286,-2.1211 h -12.355 l -10.449,2.1211 h -10.535 l -6.211,-2.1211 h -6.371 l -6.332,-4.3242 -3.938,-6.289 -4.273,-4.3477 -4.207,-6.4062 -6.332,-4.3164 h -4.051 -6.403"
         style="fill:#c6339e;fill-opacity:1;fill-rule:nonzero;stroke:none"
         id="path128"
         inkscape:connector-curvature="0" /><path
         d="m 309.082,67.1563 -6.367,-1.961 h -10.414 l -4.242,1.961 -2.082,2.1484 -2.204,4.3281 -4.199,8.5938 -2.086,8.4257 -2.121,4.3086 -1.969,4.2852 -4.25,4.3089 -4.238,1.933 -6.281,2.207 -8.07,2.11 h -4.207 -4.204 l -4.242,-2.11 -2.125,-2.207 -4.051,-4.082 -4.285,-6.4451 -4.203,-6.4453 -2.121,-2.1484 -2.117,-2.0234 -8.301,-2.1172 h -4.258 -6.347 l -6.172,2.1172 -6.344,4.1718 -2.121,2.1367 -2.121,4.3086 -2.125,6.4451 2.125,4.082 2.121,10.75 6.324,18.879 v 4.305 4.289 l -2.101,2.117 -2.102,2.012 -10.605,2.16 -10.122,2.156 h -10.582 l -8.312,-4.316 -8.469,-4.129 -8.258,-4.289 -16.816,-10.703 -16.7617,-10.614 -6.0625,-3.976 -6.3516,-2.195 h -6.3203 l -6.25,2.195 -6.2891,3.976 -4.2578,4.286 -2.1055,4.277 -4.1132,8.449 v 4.305 4.289 l 1.9765,6.289 4.2422,4.324 4.2578,6.426 8.2617,4.094 16.9493,8.64 16.4762,8.606 8.317,4.121 4.242,4.277 4.199,2.157 6.406,8.566 2.106,4.168 1.949,4.316 2.117,8.567 v 12.429 4.278 4.316 l -4.066,8.399 -2.106,6.445 -6.406,4.316 -4.199,4.278 -6.211,2.011 -12.707,4.278 -12.2032,2.187 -10.5859,4.278 -4.2774,2.14 -1.9726,4.297 -2.0469,4.141 v 6.425 8.633 4.16 l 2.0469,4.258 4.1054,4.278 h 4.2657 l 6.3672,2.156 h 12.1953 l 14.8125,2.121 6.211,2.168 6.344,1.98 6.367,4.329 6.152,3.964 6.367,8.621 4.239,10.563 2.125,6.437 v 4.305 4.121 l -6.364,15.059 -2.109,8.281 v 8.555 l 2.109,4.172 v 4.265 l 4.239,4.336 2.125,6.406 8.273,6.309 2.121,2.129 4.238,2.16 6.196,2.176 h 6.027 8.504 6.344 l 8.297,4.258 8.48,6.164 6.215,4.148 2.086,6.426 2.117,6.426 v 4.297 l -2.117,6.289 -4.207,4.258 -8.352,10.617 -6.347,10.754 -4.2,4.296 -1.972,6.258 v 4.297 l 1.972,6.438 4.2,6.289 6.347,6.441 6.344,2.172 6.215,2.125 h 6.324 l 4.242,-2.125 6.211,-2.172 4.203,-4.262 10.575,-8.468 12.269,-8.578 6.32,-4.282 6.219,-2.008 h 6.321 l 6.371,2.008 8.293,4.282 8.488,6.441 4.242,2.137 2.086,4.324 4.051,8.406 v 6.481 l 2.152,6.246 v 14.754 l -2.152,14.843 -2.051,14.895 -4.086,12.875 -4.242,8.433 -4.242,10.731 -4.246,10.625 -2.122,8.57 -1.929,8.426 -2.125,8.273 v 8.426 l 2.125,6.481 1.929,4.281 2.122,6.457 2.16,4.125 2.086,4.309 4.242,4.296 6.328,4.282 6.203,2.117 8.453,2.047 H 334 l 6.02,-2.047 6.367,-2.117 6.332,-4.282 6.25,-4.296 4.16,-6.442 2.168,-4.152 2.09,-8.578 2.129,-6.481 v -10.558 l -2.129,-8.282 -2.09,-10.586 -4.238,-10.722 -4.207,-10.606 -6.211,-10.547 -2.121,-6.46 -2.133,-10.762 -2.117,-10.543 -2.082,-14.871 v -25.344 -19.164 -6.441 l 2.082,-4.282 4.25,-6.304 4.199,-6.426 4.133,-4.317"
         style="fill:none;stroke:#c6339e;stroke-width:3.52900004;stroke-linecap:butt;stroke-linejoin:miter;stroke-miterlimit:4;stroke-dasharray:none;stroke-opacity:1"
         id="path130"
         inkscape:connector-curvature="0" /><path
         d="m 356.664,483.441 6.211,-2.136 6.367,-1.985 12.512,-4.304 h 14.648 6.328 l 8.477,2.156 h 2.137 l 4.074,2.148 2.129,1.985 4.238,2.136 2.117,6.446 2.082,4.297 v 6.304 l 4.09,19.149 8.196,19.035 6.269,12.723 4.285,6.46 6.172,4.153 4.289,4.281 4.219,4.301 8.309,2.121 h 6.339 4.2 l 4.246,-2.121 4.093,-2.188 2.118,-4.273 2.109,-6.274 2.09,-10.757 -2.09,-10.567 -2.109,-4.301 -2.118,-6.441 -6.183,-14.578 -12.695,-12.731 -14.688,-15.039 -4.062,-4.121 -2.118,-6.445 -4.25,-10.742 -2.156,-10.586 v -8.555 l 4.285,-6.328 4.239,-4.266 4.062,-2.16 2.16,-4.316 8.457,-4.121 6.172,-1.981 6.367,-2.004 6.317,2.004 4.093,1.981 6.317,6.289 6.379,8.574 6.172,4.297 4.238,4.18 6.055,4.277 4.238,2.129 8.308,2.168 h 4.2 l 4.25,-2.168 h 2.117 l 2.109,-2.129 4.25,-4.277 1.934,-6.297 4.277,-4.328 v -6.426 -4.141 -4.129 l -2.121,-4.172 -4.09,-6.406 -6.359,-6.484 -10.567,-8.406 -8.308,-6.438 -8.477,-6.309 -6.054,-6.289 -1.926,-4.277 -2.129,-4.297 v -17.031 l -2.117,-23.473 2.117,-25.125 2.129,-23.496 4.094,-23.488 2.07,-8.602 3.926,-8.398 4.246,-6.438 4.219,-2.168 6.21,-4.128 6.368,-4.317 4.199,-3.976 2.109,-6.407 2.129,-4.316 v -6.289 l -2.129,-6.445 -2.109,-6.434 -6.367,-6.328 -2.11,-2.11 h -4.062 l -4.238,-2.16 -6.336,2.16 h -6.055 -6.164 l -6.367,-4.289 -6.348,-6.433 -2.109,-4.172 -2.118,-4.285 2.118,-8.594 4.199,-8.398 6.379,-8.606 4.246,-8.445 4.094,-6.446 v -8.3 l -2.168,-2.11 -1.926,-4.14 -6.367,-4.3089 -4.258,-2.168 -4.199,-2.1172 -6.211,2.1172 -4.246,2.168 -4.2,4.3089 -8.332,10.574 -10.535,10.422 -4.289,4.168 -6.172,4.277 -4.285,2.121 h -6.269 -6.211 l -8.157,-2.121 -4.238,-2.156 -4.246,-2.121 -4.074,-6.328 -4.246,-6.153 -2.129,-8.543 -4.239,-6.289 -4.152,-4.3279 -4.101,-2.1172 -4.286,-2.1211 h -12.648 l -10.418,2.1211 h -10.461 l -6.328,-2.1211 h -6.066 l -6.332,-4.3242 -3.938,-6.289 -4.273,-4.3477 -4.207,-6.4062 -6.332,-4.3164 h -4.051 -6.403"
         style="fill:none;stroke:#c6339e;stroke-width:3.52900004;stroke-linecap:butt;stroke-linejoin:miter;stroke-miterlimit:4;stroke-dasharray:none;stroke-opacity:1"
         id="path132"
         inkscape:connector-curvature="0" /><path
         d="m 523.969,604.605 -6.055,2.176 -6.355,2.121 -6.172,2.176 -4.219,4.258 -4.25,4.172 -2.109,6.453 -2.118,6.426 v 3.996 6.289 l 2.118,6.426 2.109,4.297 4.25,4.281 4.219,4.179 6.172,2.165 6.355,2.117 h 6.055 l 4.219,-2.117 h 6.21 l 4.2,-4.364 4.25,-4.125 4.226,-4.301 2.129,-6.421 2.121,-6.309 v -6.113 -4.301 l -2.121,-6.457 -2.129,-4.281 -4.226,-4.145 -6.36,-2.125 -4.062,-4.297 h -4.238 l -4.219,-2.176"
         style="fill:#c6339e;fill-opacity:1;fill-rule:nonzero;stroke:none"
         id="path134"
         inkscape:connector-curvature="0" /><path
         d="m 523.969,604.605 -6.055,2.176 -6.355,2.121 -6.172,2.176 -4.219,4.258 -4.25,4.172 -2.109,6.453 -2.118,6.426 v 3.996 6.289 l 2.118,6.426 2.109,4.297 4.25,4.281 4.219,4.179 6.172,2.165 6.355,2.117 h 6.055 l 4.219,-2.117 h 6.21 l 4.2,-4.364 4.25,-4.125 4.226,-4.301 2.129,-6.421 2.121,-6.309 v -6.113 -4.301 l -2.121,-6.457 -2.129,-4.281 -4.226,-4.145 -6.36,-2.125 -4.062,-4.297 h -4.238 l -4.219,-2.176"
         style="fill:none;stroke:#c6339e;stroke-width:3.52900004;stroke-linecap:butt;stroke-linejoin:miter;stroke-miterlimit:4;stroke-dasharray:none;stroke-opacity:1"
         id="path136"
         inkscape:connector-curvature="0" /><path
         d="m 521.852,615.336 6.336,4.172 2.16,2.121 2.078,2.141 4.062,6.46 v 4.301 l -2.09,6.137 -1.972,4.141 -4.238,4.289 -4.219,4.297 h 4.219 l 4.238,-2.165 1.972,-2.132 4.2,-4.289 2.168,-2.137 V 638.5 l 2.082,-3.969 v -4.301 l -4.25,-6.46 -4.2,-4.262 -6.21,-4.172 h -6.336"
         style="fill:#ffffff;fill-opacity:1;fill-rule:nonzero;stroke:none"
         id="path138"
         inkscape:connector-curvature="0" /><path
         d="m 281.391,141.602 6.367,-2.18 2.152,-4.305 8.258,-6.398 6.328,-2.051 8.527,-2.117 8.25,2.117 6.368,2.051 6.359,4.277 6.02,4.27 h 4.25 2.117 l 8.304,-2.149 h 3.985 4.199 l 6.367,2.149 8.301,4.336 14.805,8.398 8.34,8.594 4.199,8.457 8.457,6.433 h 4.074 4.246 l 10.41,-2.156 10.313,-2.16 4.152,2.16 4.285,2.156 6.172,3.985 2.129,4.277 v 2.16 2.157 4.132 l 2.16,4.278 2.051,4.324 8.484,6.398 1.993,4.168 4.179,2.121 v 4.305 l 2.16,4.289 v 8.445 l -2.16,8.606 -6.172,17 -2.078,6.437 -2.121,8.446 v 18.886 21.348 23.41 l -2.117,-8.429 -6.379,-21.289 -2.129,-12.879 -1.933,-16.739 v -17.031 -19.16 -6.438 l -2.118,-6.296 -2.121,-4.317 -4.285,-4.289 -6.269,-8.398 -8.196,-8.594 v -2.156 h -2 l -4.172,-2.168 -4.238,2.168 h -4.246 l -8.32,2.156 h -4.211 l -2.157,-4.324 -10.382,-14.883 -10.594,-8.262 -6.223,-2.16 -4.16,-2.117 h -4.246 -4.25 -16.488 l -8.449,-2.207 H 334 l -4.273,-4.094 -8.454,-6.426 -6.136,-4.324 h -4.278 -4.238 l -10.387,2.156 h -4.238 l -6.32,2.168 -12.278,2.121 -8.488,2.149 -8.484,-2.149 -10.375,-2.121 L 233.469,150 h 16.82 l 12.539,-2.16 18.563,-6.238"
         style="fill:#ffffff;fill-opacity:1;fill-rule:nonzero;stroke:none"
         id="path140"
         inkscape:connector-curvature="0" /><path
         d="m 589.047,150 h -4.16 l -6.356,2.156 -8.34,6.438 -2.07,4.285 -2.16,4.172 -2.109,4.277 v 6.445 4.317 l 2.109,6.277 6.23,8.613 4.219,2.11 4.238,2.121 6.329,2.012 h 3.945 6.164 l 4.285,-2.012 8.399,-6.438 4.093,-4.285 2.129,-4.277 v -4.121 l 2.11,-6.477 -2.11,-6.445 -2.129,-4.324 -4.093,-8.399 -4.149,-2.121 -6.367,-2.168 -4.277,-2.156 h -5.93"
         style="fill:#c6339e;fill-opacity:1;fill-rule:nonzero;stroke:none"
         id="path142"
         inkscape:connector-curvature="0" /></g></g></svg>